<?xml version="1.0" encoding="UTF-8"?>
<svg version="1.1" xmlns="http://www.w3.org/2000/svg" width="55" height="69">
<path d="M0 0 C12.54 0 25.08 0 38 0 C37.67 1.98 37.34 3.96 37 6 C34.03 6 31.06 6 28 6 C28.00785522 7.76428345 28.00785522 7.76428345 28.01586914 9.56420898 C28.03391663 13.91202031 28.04543108 18.2598283 28.05493164 22.60766602 C28.05997244 24.4924373 28.06680498 26.37720465 28.07543945 28.26196289 C28.08751617 30.96501636 28.09323068 33.66801831 28.09765625 36.37109375 C28.10281754 37.21900986 28.10797882 38.06692596 28.11329651 38.9405365 C28.11349195 40.96071068 28.06206211 42.98077934 28 45 C27.67 45.33 27.34 45.66 27 46 C25.02 46 23.04 46 21 46 C21 32.8 21 19.6 21 6 C14.07 6 7.14 6 0 6 C0 4.02 0 2.04 0 0 Z " fill="#5997D0" transform="translate(0,23)"/>
<path d="M0 0 C0.33 1.32 0.66 2.64 1 4 C-2.75 6 -2.75 6 -5 6 C-7.08135307 11.29798964 -8.71291613 16.45563871 -10 22 C-9.34 22 -8.68 22 -8 22 C-8 23.98 -8 25.96 -8 28 C-9.32 28 -10.64 28 -12 28 C-12.0825 29.155 -12.165 30.31 -12.25 31.5 C-12.961788 37.14417809 -15.031061 41.90403268 -18.9375 46.0625 C-21.64473494 47.29306133 -23.20739943 46.85329462 -26 46 C-26.33 44.68 -26.66 43.36 -27 42 C-24 40 -24 40 -22 40 C-19.18499531 32.25595548 -16.78380094 24.70583784 -15.4375 16.5625 C-14.45795255 10.7382015 -13.20783545 6.01224289 -10 1 C-6.1496895 -1.56687367 -4.41430237 -0.83288724 0 0 Z " fill="#8DCB57" transform="translate(54,1)"/>
</svg>
